<svg width="269" height="244" viewBox="0 0 269 244" fill="none" xmlns="http://www.w3.org/2000/svg">
<path fill-rule="evenodd" clip-rule="evenodd" d="M40.0646 77.9837C43.6638 68.2598 40.787 56.8742 36.716 47.3382C34.9677 43.2428 34 38.7344 34 34C34 15.2223 49.2223 0 68 0C75.1217 0 81.732 2.1896 87.1944 5.93233C95.7409 11.7882 106.345 16.8239 116.578 15.2064C121.602 14.4124 126.753 14 132 14C186.124 14 230 57.8761 230 112C230 112.373 230.241 112.703 230.595 112.82C252.903 120.197 269 141.219 269 166C269 196.928 243.928 222 213 222C201.178 222 190.211 218.337 181.174 212.083C173.977 207.103 164.855 204.774 156.376 206.944C148.583 208.939 140.415 210 132 210C112.516 210 94.3604 204.314 79.1014 194.511C71.8846 189.875 62.6944 189.274 54.2999 191.038C51.2991 191.668 48.1883 192 45 192C20.1472 192 0 171.853 0 147C0 130.885 8.47072 116.749 21.2025 108.8C28.4819 104.256 34.6923 97.4448 36.6903 89.0991C37.599 85.3034 38.7285 81.5935 40.0646 77.9837ZM269 68C269 74.0751 264.075 79 258 79C251.925 79 247 74.0751 247 68C247 61.9249 251.925 57 258 57C264.075 57 269 61.9249 269 68ZM68 244C74.0751 244 79 239.075 79 233C79 226.925 74.0751 222 68 222C61.9249 222 57 226.925 57 233C57 239.075 61.9249 244 68 244Z" fill="#E26767"/>
</svg>
