<svg width="291" height="282" viewBox="0 0 291 282" fill="none" xmlns="http://www.w3.org/2000/svg">
<path fill-rule="evenodd" clip-rule="evenodd" d="M91.4254 64.9891C96.6789 59.8427 99 52.3542 99 45C99 20.1472 119.147 0 144 0C163.566 0 180.215 12.487 186.413 29.9264C188.775 36.5709 193.419 42.5745 199.859 45.4455C209.396 49.6966 221.37 46.3439 230.495 41.2678C235.382 38.5488 241.01 37 247 37C265.778 37 281 52.2223 281 71C281 76.61 279.641 81.9027 277.235 86.567C269.702 101.167 258 118.571 258 135C258 189.124 214.124 233 160 233C142.392 233 125.868 228.356 111.587 220.226C95.437 211.032 74.5834 209 56 209C25.0721 209 0 183.928 0 153C0 122.072 25.0721 97 56 97C63.547 97 70.9858 93.2611 74.7109 86.6976C79.2553 78.6907 84.8947 71.3866 91.4254 64.9891ZM291 145C291 151.075 286.075 156 280 156C273.925 156 269 151.075 269 145C269 138.925 273.925 134 280 134C286.075 134 291 138.925 291 145ZM144 282C150.075 282 155 277.075 155 271C155 264.925 150.075 260 144 260C137.925 260 133 264.925 133 271C133 277.075 137.925 282 144 282Z" fill="#7EA8FF"/>
</svg>
