<svg width="198" height="244" viewBox="0 0 198 244" fill="none" xmlns="http://www.w3.org/2000/svg">
<path fill-rule="evenodd" clip-rule="evenodd" d="M-30.9354 77.9837C-27.3362 68.2598 -30.213 56.8742 -34.284 47.3382C-36.0323 43.2428 -37 38.7344 -37 34C-37 15.2223 -21.7777 0 -3 0C4.12171 0 10.732 2.1896 16.1944 5.93233C24.7409 11.7882 35.3454 16.8239 45.5785 15.2064C50.6023 14.4124 55.753 14 61 14C115.124 14 159 57.8761 159 112C159 112.373 159.241 112.703 159.595 112.82C181.903 120.197 198 141.219 198 166C198 196.928 172.928 222 142 222C130.178 222 119.211 218.337 110.174 212.083C102.977 207.103 93.8553 204.774 85.3765 206.944C77.583 208.939 69.4154 210 61 210C41.5162 210 23.3604 204.314 8.10143 194.511C0.884583 189.875 -8.30563 189.274 -16.7001 191.038C-19.7009 191.668 -22.8117 192 -26 192C-50.8528 192 -71 171.853 -71 147C-71 130.885 -62.5293 116.749 -49.7975 108.8C-42.5181 104.256 -36.3077 97.4448 -34.3097 89.0991C-33.401 85.3034 -32.2715 81.5935 -30.9354 77.9837ZM198 68C198 74.0751 193.075 79 187 79C180.925 79 176 74.0751 176 68C176 61.9249 180.925 57 187 57C193.075 57 198 61.9249 198 68ZM-3 244C3.07513 244 8 239.075 8 233C8 226.925 3.07513 222 -3 222C-9.07513 222 -14 226.925 -14 233C-14 239.075 -9.07513 244 -3 244Z" fill="#E26767"/>
</svg>
