<svg width="232" height="286" viewBox="0 0 232 286" fill="none" xmlns="http://www.w3.org/2000/svg">
<path fill-rule="evenodd" clip-rule="evenodd" d="M148.14 251.654C158.724 249.7 169.945 254.886 178.899 260.858C183.988 264.252 190.054 266.315 196.617 266.532C215.384 267.153 231.101 252.442 231.722 233.674C231.911 227.949 230.674 222.507 228.329 217.692C223.617 208.012 219.987 196.197 223.354 185.972C226.206 177.307 227.887 168.095 228.204 158.517C229.126 130.636 218.309 105.091 200.202 86.6351C193.912 80.2242 191.391 70.849 192.261 61.9101C192.378 60.7119 192.457 59.5022 192.497 58.2821C193.519 27.371 169.29 1.48401 138.379 0.461822C107.468 -0.560363 81.5806 23.6693 80.5584 54.5804C80.5419 55.0808 80.5319 55.5799 80.5286 56.0776C80.4724 64.3144 77.0725 72.5454 70.544 77.568C69.9215 78.0469 69.3049 78.5331 68.6943 79.0265C65.3141 81.758 60.9561 82.948 56.6125 82.8044C31.7733 81.983 10.9712 101.453 10.1498 126.293C9.69727 139.978 15.4044 152.438 24.7754 161.006C29.4692 165.297 33.251 170.706 34.6503 176.91C44.2282 219.376 81.4803 251.719 127.019 253.224C134.243 253.463 141.311 252.914 148.14 251.654ZM115.933 285.876C109.861 285.675 105.102 280.59 105.303 274.518C105.504 268.447 110.589 263.687 116.66 263.888C122.732 264.089 127.492 269.174 127.291 275.245C127.09 281.317 122.005 286.077 115.933 285.876ZM0.444808 86.9503C0.244022 93.0221 5.00343 98.107 11.0752 98.3078C17.1471 98.5086 22.232 93.7492 22.4328 87.6774C22.6336 81.6056 17.8742 76.5206 11.8024 76.3199C5.73054 76.1191 0.645595 80.8785 0.444808 86.9503Z" fill="#FFE99E"/>
</svg>
