<svg width="271" height="269" viewBox="0 0 271 269" fill="none" xmlns="http://www.w3.org/2000/svg">
<path fill-rule="evenodd" clip-rule="evenodd" d="M92.9188 215.867C86.0741 213.178 78.2911 214.122 71.58 217.129C48.9001 227.292 22.2757 217.145 12.1126 194.465C4.11163 176.61 8.69842 156.31 22.0784 143.523C27.1762 138.65 30.7559 131.958 30.7421 124.906C30.7216 114.465 22.7654 104.908 14.4019 98.6575C9.922 95.3092 6.20717 90.8067 3.75782 85.3407C-3.92093 68.2048 3.74557 48.0886 20.8814 40.4099C26.001 38.1158 31.3865 37.1913 36.627 37.4799C53.0311 38.3833 73.6985 41.9457 88.691 35.2274C138.083 13.0945 196.065 35.1921 218.198 84.5837C225.398 100.653 227.917 117.631 226.338 133.988C224.552 152.485 231.225 172.346 238.825 189.305C251.472 217.529 238.845 250.661 210.621 263.309C182.397 275.956 149.265 263.329 136.617 235.105C133.531 228.218 127.077 222.958 119.564 222.243C110.399 221.37 101.428 219.211 92.9188 215.867ZM84.322 1.02341C89.866 -1.4609 96.3742 1.01944 98.8585 6.5634C101.343 12.1074 98.8624 18.6156 93.3185 21.0999C87.7745 23.5842 81.2663 21.1038 78.782 15.5599C76.2977 10.0159 78.7781 3.50771 84.322 1.02341ZM269.456 79.1472C266.972 73.6032 260.464 71.1229 254.92 73.6072C249.376 76.0915 246.895 82.5997 249.38 88.1437C251.864 93.6876 258.372 96.168 263.916 93.6837C269.46 91.1994 271.941 84.6912 269.456 79.1472Z" fill="#E26767"/>
</svg>
