<svg width="277" height="204" viewBox="0 0 277 204" fill="none" xmlns="http://www.w3.org/2000/svg">
<path fill-rule="evenodd" clip-rule="evenodd" d="M241.464 119.564C243.682 109.032 252.744 100.625 261.672 94.6134C266.745 91.1973 270.959 86.3705 273.655 80.3833C281.364 63.261 273.733 43.1313 256.61 35.4225C251.387 33.0707 245.883 32.1466 240.538 32.4842C229.794 33.1626 217.486 32.0283 209.308 25.0271C202.378 19.0948 194.497 14.0379 185.759 10.1036C160.322 -1.34867 132.582 -1.05514 108.628 8.67597C100.308 12.0562 90.6781 10.8234 82.741 6.62048C81.6772 6.05711 80.5883 5.52406 79.4752 5.02289C51.2736 -7.67404 18.1189 4.89492 5.42197 33.0965C-7.27496 61.298 5.29401 94.4527 33.4955 107.15C33.9521 107.355 34.4099 107.554 34.869 107.746C42.466 110.93 48.7865 117.204 50.9499 125.151C51.1562 125.909 51.3715 126.664 51.5957 127.417C52.8371 131.582 52.281 136.065 50.4968 140.028C40.2939 162.689 50.394 189.332 73.0559 199.535C85.5418 205.156 99.2358 204.614 110.723 199.204C116.477 196.494 122.917 195.053 129.187 196.117C172.106 203.402 216.182 181.243 234.887 139.697C237.855 133.105 240.034 126.359 241.464 119.564ZM260.873 162.363C258.379 167.902 251.866 170.371 246.327 167.877C240.787 165.383 238.318 158.871 240.812 153.331C243.306 147.791 249.819 145.323 255.359 147.817C260.898 150.311 263.367 156.823 260.873 162.363ZM32.9781 193.554C38.5177 196.048 45.0302 193.579 47.5242 188.04C50.0183 182.5 47.5494 175.988 42.0098 173.494C36.4702 170.999 29.9577 173.468 27.4636 179.008C24.9696 184.548 27.4385 191.06 32.9781 193.554Z" fill="#FFE99E"/>
</svg>
